<?xml version="1.0" encoding="utf-8"?>
<!-- Generator: Adobe Illustrator 18.0.0, SVG Export Plug-In . SVG Version: 6.00 Build 0)  -->
<!DOCTYPE svg PUBLIC "-//W3C//DTD SVG 1.1//EN" "http://www.w3.org/Graphics/SVG/1.1/DTD/svg11.dtd">
<svg version="1.1" id="Layer_1" xmlns="http://www.w3.org/2000/svg" xmlns:xlink="http://www.w3.org/1999/xlink" x="0px" y="0px"
	 viewBox="0 0 47.9 46.8" enable-background="new 0 0 47.9 46.8" xml:space="preserve">
<path fill="#EC9790" d="M35.5,3.4c-5.5,0-10,3.9-11.1,9c-1.1-5.1-5.7-9-11.1-9C7,3.4,2,8.5,1.9,14.8C1.7,30.9,24.4,42,24.4,42
	s22.5-11.1,22.5-27.3C46.9,8.5,41.8,3.4,35.5,3.4z"/>
<g>
	<path fill="#FFFFFF" d="M13.3,23.8c0.1-0.8,0.3-1.5,0.5-2.2c0.2-0.7,0.5-1.3,0.8-2c0.3-0.6,0.8-1.3,1.2-2h-4.8v-1.6h6.8v1.1
		c-0.6,0.7-1.1,1.4-1.4,2.1c-0.4,0.7-0.7,1.3-0.9,2c-0.2,0.7-0.4,1.4-0.5,2.2c-0.1,0.8-0.2,1.7-0.2,2.7H13
		C13.1,25.3,13.2,24.5,13.3,23.8z"/>
	<path fill="#FFFFFF" d="M20,23.3c0-0.5,0.1-0.9,0.2-1.3c0.1-0.4,0.3-0.7,0.6-1c0.2-0.3,0.5-0.5,0.8-0.6s0.6-0.2,0.9-0.2
		c0.3,0,0.6,0.1,0.9,0.2c0.2,0.1,0.5,0.3,0.7,0.5l0-0.9v-2.1h1.4v8.5h-1.1l-0.1-0.6h0c-0.2,0.2-0.5,0.4-0.8,0.6
		c-0.3,0.2-0.6,0.2-0.9,0.2c-0.7,0-1.3-0.3-1.8-0.8C20.3,25,20,24.3,20,23.3z M21.5,23.3c0,0.6,0.1,1.1,0.3,1.5
		c0.2,0.3,0.6,0.5,1,0.5c0.4,0,0.9-0.2,1.2-0.7v-2.7c-0.2-0.2-0.4-0.3-0.6-0.4c-0.2-0.1-0.4-0.1-0.6-0.1c-0.4,0-0.7,0.2-1,0.5
		S21.5,22.7,21.5,23.3z"/>
	<path fill="#FFFFFF" d="M26.4,24.7c0-0.6,0.3-1.1,0.8-1.5c0.6-0.3,1.4-0.6,2.6-0.7c0-0.2,0-0.3-0.1-0.4c0-0.1-0.1-0.3-0.2-0.4
		s-0.2-0.2-0.3-0.3c-0.1-0.1-0.3-0.1-0.5-0.1c-0.3,0-0.6,0.1-0.9,0.2c-0.3,0.1-0.5,0.2-0.8,0.4L26.7,21c0.3-0.2,0.7-0.4,1.1-0.5
		c0.4-0.2,0.8-0.2,1.3-0.2c0.7,0,1.3,0.2,1.7,0.7c0.4,0.4,0.5,1.1,0.5,1.9v3.5h-1.1L30,25.6h0c-0.3,0.2-0.5,0.4-0.8,0.6
		c-0.3,0.2-0.6,0.2-1,0.2c-0.5,0-0.9-0.2-1.3-0.5C26.6,25.6,26.4,25.2,26.4,24.7z M27.8,24.6c0,0.3,0.1,0.5,0.2,0.6s0.4,0.2,0.6,0.2
		c0.2,0,0.5-0.1,0.7-0.2c0.2-0.1,0.4-0.3,0.6-0.5v-1.3c-0.4,0-0.7,0.1-1,0.2c-0.3,0.1-0.5,0.2-0.7,0.3S28,24,27.9,24.2
		C27.8,24.3,27.8,24.4,27.8,24.6z"/>
	<path fill="#FFFFFF" d="M32.6,27.5c0.1,0,0.1,0,0.2,0c0.3,0,0.6-0.1,0.8-0.3c0.2-0.2,0.3-0.4,0.4-0.7l0.1-0.4l-2.3-5.8h1.4l1,2.9
		c0.1,0.3,0.2,0.5,0.3,0.8c0.1,0.3,0.2,0.6,0.3,0.8h0c0.1-0.3,0.1-0.6,0.2-0.8c0.1-0.3,0.2-0.6,0.2-0.8l0.9-2.9h1.3l-2.1,6.2
		c-0.1,0.3-0.3,0.6-0.4,0.9c-0.1,0.3-0.3,0.5-0.5,0.7c-0.2,0.2-0.4,0.3-0.6,0.4c-0.2,0.1-0.5,0.2-0.8,0.2c-0.2,0-0.3,0-0.4,0
		c-0.1,0-0.2-0.1-0.3-0.1l0.3-1.1C32.4,27.5,32.5,27.5,32.6,27.5z"/>
</g>
</svg>
